<svg xmlns="http://www.w3.org/2000/svg" xmlns:xlink="http://www.w3.org/1999/xlink" zoomAndPan="magnify" preserveAspectRatio="xMidYMid meet" version="1.0" viewBox="0 0.14 1024.5 576"><defs><clipPath id="7af1f4a87e"><path d="M 0 0.140625 L 1024 0.140625 L 1024 575.859375 L 0 575.859375 Z M 0 0.140625 " clip-rule="nonzero"/></clipPath><clipPath id="19e083506c"><path d="M 319.261719 95.152344 L 705.511719 95.152344 L 705.511719 481.402344 L 319.261719 481.402344 Z M 319.261719 95.152344 " clip-rule="nonzero"/></clipPath><clipPath id="f912d09a96"><path d="M 648.945312 151.714844 C 612.46875 115.238281 563.96875 95.152344 512.386719 95.152344 C 460.800781 95.152344 412.300781 115.238281 375.824219 151.714844 C 339.347656 188.191406 319.261719 236.691406 319.261719 288.277344 C 319.261719 339.859375 339.347656 388.359375 375.824219 424.835938 C 412.300781 461.3125 460.800781 481.402344 512.386719 481.402344 C 563.96875 481.402344 612.46875 461.3125 648.945312 424.835938 C 685.421875 388.359375 705.511719 339.859375 705.511719 288.277344 C 705.511719 236.691406 685.421875 188.191406 648.945312 151.714844 Z M 396.511719 417.027344 L 386.253906 417.027344 C 385.8125 416.59375 385.367188 416.167969 384.929688 415.730469 C 365.035156 395.835938 350.375 372.105469 341.613281 346.214844 L 396.511719 346.214844 Z M 639.839844 415.730469 C 605.796875 449.777344 560.53125 468.527344 512.386719 468.527344 C 475.070312 468.527344 439.488281 457.253906 409.515625 436.339844 L 441.574219 436.339844 C 445.128906 436.339844 448.011719 433.457031 448.011719 429.902344 L 448.199219 429.902344 C 455.792969 429.902344 463.21875 431.332031 470.273438 434.152344 L 479.429688 437.8125 C 487.660156 441.105469 496.328125 442.777344 505.191406 442.777344 L 557.449219 442.777344 C 568.097656 442.777344 576.761719 434.113281 576.761719 423.464844 C 576.761719 420.023438 575.855469 416.789062 574.273438 413.988281 C 579.636719 410.554688 583.199219 404.542969 583.199219 397.714844 C 583.199219 392.769531 581.332031 388.257812 578.269531 384.839844 C 581.332031 381.417969 583.199219 376.90625 583.199219 371.964844 C 583.199219 367.019531 581.332031 362.507812 578.269531 359.089844 C 581.332031 355.667969 583.199219 351.15625 583.199219 346.214844 C 583.199219 335.566406 574.535156 326.902344 563.886719 326.902344 L 534.378906 326.902344 C 534.101562 326.902344 533.871094 326.789062 533.695312 326.570312 C 533.519531 326.351562 533.460938 326.105469 533.523438 325.832031 L 539.066406 300.882812 C 540.816406 293.003906 538.898438 284.898438 533.804688 278.636719 C 528.714844 272.378906 521.164062 268.84375 513.085938 268.964844 C 506.007812 269.0625 499.730469 273.695312 497.464844 280.492188 L 488.921875 306.121094 C 484.445312 319.546875 473.691406 329.671875 460.066406 333.339844 L 448.011719 333.339844 C 448.011719 329.78125 445.128906 326.902344 441.574219 326.902344 L 402.949219 326.902344 C 399.390625 326.902344 396.511719 329.78125 396.511719 333.339844 L 337.792969 333.339844 C 334.066406 318.792969 332.136719 303.683594 332.136719 288.277344 C 332.136719 240.128906 350.882812 194.863281 384.929688 160.820312 C 418.972656 126.773438 464.238281 108.027344 512.386719 108.027344 C 560.53125 108.027344 605.796875 126.773438 639.839844 160.820312 C 673.886719 194.863281 692.636719 240.128906 692.636719 288.277344 C 692.636719 336.421875 673.886719 381.6875 639.839844 415.730469 Z M 409.386719 423.464844 L 409.386719 339.777344 L 435.136719 339.777344 L 435.136719 423.464844 Z M 448.011719 346.214844 L 460.886719 346.214844 C 461.410156 346.214844 461.9375 346.148438 462.445312 346.019531 C 480.714844 341.453125 495.179688 328.058594 501.136719 310.195312 L 509.679688 284.566406 C 510.214844 282.957031 511.65625 281.863281 513.265625 281.839844 C 513.328125 281.839844 513.390625 281.839844 513.457031 281.839844 C 517.496094 281.839844 521.265625 283.625 523.820312 286.761719 C 526.414062 289.949219 527.390625 294.078125 526.496094 298.089844 L 520.953125 323.039062 C 520.042969 327.128906 521.027344 331.355469 523.652344 334.625 C 526.273438 337.898438 530.183594 339.773438 534.378906 339.773438 L 563.886719 339.773438 C 567.433594 339.773438 570.324219 342.664062 570.324219 346.210938 C 570.324219 349.761719 567.433594 352.648438 563.886719 352.648438 C 560.328125 352.648438 557.449219 355.53125 557.449219 359.085938 C 557.449219 362.640625 560.328125 365.523438 563.886719 365.523438 C 567.433594 365.523438 570.324219 368.414062 570.324219 371.960938 C 570.324219 375.511719 567.433594 378.398438 563.886719 378.398438 C 560.328125 378.398438 557.449219 381.28125 557.449219 384.835938 C 557.449219 388.390625 560.328125 391.273438 563.886719 391.273438 C 567.433594 391.273438 570.324219 394.164062 570.324219 397.710938 C 570.324219 401.261719 567.433594 404.148438 563.886719 404.148438 L 557.449219 404.148438 C 553.890625 404.148438 551.011719 407.03125 551.011719 410.585938 C 551.011719 414.140625 553.890625 417.023438 557.449219 417.023438 C 560.996094 417.023438 563.886719 419.914062 563.886719 423.460938 C 563.886719 427.011719 560.996094 429.898438 557.449219 429.898438 L 505.191406 429.898438 C 497.972656 429.898438 490.914062 428.539062 484.210938 425.859375 L 475.054688 422.195312 C 466.476562 418.765625 457.4375 417.027344 448.199219 417.027344 L 448.011719 417.027344 Z M 545.085938 189.898438 L 568.292969 168.09375 C 570.097656 166.398438 570.769531 163.816406 570.019531 161.453125 C 569.269531 159.09375 567.230469 157.371094 564.777344 157.027344 L 532.503906 152.507812 L 518.113281 124.40625 C 517.011719 122.253906 514.800781 120.902344 512.386719 120.902344 C 509.96875 120.902344 507.757812 122.253906 506.65625 124.402344 L 492.265625 152.507812 L 459.992188 157.027344 C 457.539062 157.371094 455.5 159.089844 454.75 161.453125 C 454 163.816406 454.671875 166.398438 456.476562 168.09375 L 479.6875 189.898438 L 474.21875 220.628906 C 473.792969 223.027344 474.757812 225.46875 476.71875 226.921875 C 478.675781 228.378906 481.289062 228.601562 483.464844 227.496094 L 512.386719 212.84375 L 541.304688 227.496094 C 542.222656 227.964844 543.21875 228.191406 544.210938 228.191406 C 545.570312 228.191406 546.921875 227.761719 548.050781 226.921875 C 550.011719 225.46875 550.980469 223.03125 550.550781 220.628906 Z M 533.726562 182.902344 C 532.140625 184.390625 531.414062 186.582031 531.796875 188.722656 L 535.617188 210.179688 L 515.292969 199.882812 C 514.378906 199.421875 513.382812 199.1875 512.386719 199.1875 C 511.386719 199.1875 510.390625 199.421875 509.476562 199.882812 L 489.15625 210.179688 L 492.972656 188.722656 C 493.355469 186.582031 492.628906 184.390625 491.042969 182.902344 L 475.089844 167.914062 L 497.363281 164.792969 C 499.441406 164.5 501.246094 163.21875 502.203125 161.351562 L 512.386719 141.460938 L 522.570312 161.351562 C 523.523438 163.21875 525.328125 164.5 527.40625 164.792969 L 549.683594 167.914062 Z M 461.777344 200.367188 L 442.847656 197.71875 L 434.425781 181.269531 C 433.324219 179.117188 431.113281 177.765625 428.699219 177.765625 C 426.28125 177.765625 424.070312 179.117188 422.96875 181.269531 L 414.546875 197.71875 L 395.617188 200.367188 C 393.164062 200.710938 391.125 202.433594 390.375 204.792969 C 389.625 207.15625 390.296875 209.738281 392.101562 211.433594 L 405.65625 224.167969 L 402.464844 242.085938 C 402.039062 244.488281 403.007812 246.925781 404.964844 248.378906 C 406.921875 249.835938 409.535156 250.058594 411.714844 248.957031 L 428.699219 240.347656 L 445.679688 248.957031 C 446.601562 249.421875 447.597656 249.652344 448.589844 249.652344 C 449.949219 249.652344 451.296875 249.222656 452.429688 248.378906 C 454.386719 246.925781 455.355469 244.488281 454.925781 242.085938 L 451.738281 224.167969 L 465.292969 211.433594 C 467.097656 209.738281 467.769531 207.15625 467.019531 204.792969 C 466.269531 202.433594 464.230469 200.710938 461.777344 200.367188 Z M 440.382812 217.171875 C 438.796875 218.660156 438.070312 220.847656 438.453125 222.992188 L 439.992188 231.640625 L 431.605469 227.390625 C 430.691406 226.925781 429.695312 226.695312 428.699219 226.695312 C 427.699219 226.695312 426.703125 226.925781 425.789062 227.390625 L 417.402344 231.640625 L 418.941406 222.992188 C 419.324219 220.847656 418.597656 218.660156 417.011719 217.171875 L 410.714844 211.253906 L 419.644531 210.003906 C 421.722656 209.710938 423.527344 208.425781 424.484375 206.5625 L 428.699219 198.328125 L 432.914062 206.5625 C 433.871094 208.429688 435.675781 209.710938 437.75 210.003906 L 446.683594 211.253906 Z M 410.277344 259.378906 L 391.347656 256.726562 L 382.925781 240.28125 C 381.824219 238.128906 379.613281 236.777344 377.199219 236.777344 C 374.78125 236.777344 372.570312 238.128906 371.46875 240.277344 L 363.046875 256.726562 L 344.117188 259.375 C 341.664062 259.71875 339.625 261.441406 338.875 263.804688 C 338.125 266.164062 338.796875 268.746094 340.601562 270.445312 L 354.15625 283.175781 L 350.964844 301.09375 C 350.539062 303.496094 351.507812 305.933594 353.464844 307.390625 C 355.421875 308.847656 358.035156 309.066406 360.214844 307.964844 L 377.199219 299.359375 L 394.179688 307.964844 C 395.101562 308.433594 396.097656 308.660156 397.089844 308.660156 C 398.449219 308.660156 399.796875 308.230469 400.929688 307.390625 C 402.886719 305.9375 403.855469 303.5 403.425781 301.097656 L 400.238281 283.179688 L 413.792969 270.445312 C 415.597656 268.75 416.269531 266.164062 415.519531 263.804688 C 414.769531 261.441406 412.730469 259.722656 410.277344 259.378906 Z M 388.882812 276.183594 C 387.296875 277.671875 386.570312 279.859375 386.953125 282 L 388.492188 290.648438 L 380.105469 286.402344 C 379.191406 285.9375 378.195312 285.707031 377.199219 285.707031 C 376.199219 285.707031 375.203125 285.9375 374.289062 286.402344 L 365.902344 290.648438 L 367.441406 282 C 367.824219 279.859375 367.097656 277.671875 365.511719 276.183594 L 359.214844 270.265625 L 368.144531 269.015625 C 370.222656 268.722656 372.027344 267.4375 372.984375 265.570312 L 377.199219 257.335938 L 381.414062 265.570312 C 382.371094 267.4375 384.175781 268.722656 386.25 269.011719 L 395.183594 270.261719 Z M 615.964844 249.652344 C 617.324219 249.652344 618.671875 249.222656 619.804688 248.378906 C 621.765625 246.925781 622.730469 244.488281 622.304688 242.085938 L 619.113281 224.167969 L 632.667969 211.433594 C 634.472656 209.738281 635.144531 207.15625 634.394531 204.792969 C 633.644531 202.433594 631.605469 200.710938 629.152344 200.367188 L 610.222656 197.714844 L 601.800781 181.269531 C 600.699219 179.117188 598.488281 177.765625 596.070312 177.765625 C 593.65625 177.765625 591.441406 179.117188 590.339844 181.269531 L 581.917969 197.714844 L 562.992188 200.367188 C 560.539062 200.710938 558.5 202.433594 557.75 204.792969 C 557 207.15625 557.671875 209.738281 559.476562 211.433594 L 573.027344 224.167969 L 569.839844 242.085938 C 569.414062 244.488281 570.378906 246.925781 572.339844 248.378906 C 574.296875 249.835938 576.910156 250.058594 579.089844 248.957031 L 596.074219 240.347656 L 613.054688 248.957031 C 613.976562 249.421875 614.972656 249.652344 615.964844 249.652344 Z M 605.828125 222.992188 L 607.367188 231.640625 L 598.980469 227.390625 C 598.066406 226.929688 597.070312 226.695312 596.074219 226.695312 C 595.074219 226.695312 594.078125 226.929688 593.164062 227.390625 L 584.777344 231.640625 L 586.316406 222.992188 C 586.699219 220.851562 585.972656 218.660156 584.386719 217.171875 L 578.089844 211.253906 L 587.019531 210.003906 C 589.097656 209.710938 590.902344 208.429688 591.859375 206.5625 L 596.074219 198.328125 L 600.289062 206.5625 C 601.246094 208.429688 603.050781 209.710938 605.125 210.003906 L 614.058594 211.253906 L 607.757812 217.171875 C 606.171875 218.660156 605.445312 220.847656 605.828125 222.992188 Z M 685.894531 263.804688 C 685.144531 261.441406 683.105469 259.722656 680.652344 259.378906 L 661.722656 256.726562 L 653.300781 240.28125 C 652.199219 238.128906 649.988281 236.777344 647.574219 236.777344 C 645.15625 236.777344 642.945312 238.128906 641.84375 240.277344 L 633.421875 256.726562 L 614.492188 259.375 C 612.039062 259.71875 610 261.441406 609.25 263.804688 C 608.5 266.164062 609.171875 268.746094 610.976562 270.445312 L 624.53125 283.175781 L 621.339844 301.09375 C 620.914062 303.496094 621.882812 305.933594 623.839844 307.390625 C 625.796875 308.847656 628.410156 309.066406 630.589844 307.964844 L 647.574219 299.359375 L 664.554688 307.964844 C 665.476562 308.433594 666.472656 308.660156 667.464844 308.660156 C 668.824219 308.660156 670.171875 308.230469 671.304688 307.390625 C 673.261719 305.9375 674.230469 303.5 673.800781 301.097656 L 670.613281 283.179688 L 684.167969 270.445312 C 685.972656 268.75 686.644531 266.164062 685.894531 263.804688 Z M 659.257812 276.183594 C 657.671875 277.671875 656.945312 279.859375 657.328125 282 L 658.867188 290.648438 L 650.480469 286.402344 C 649.566406 285.9375 648.570312 285.707031 647.574219 285.707031 C 646.574219 285.707031 645.578125 285.9375 644.664062 286.402344 L 636.277344 290.648438 L 637.816406 282 C 638.199219 279.859375 637.472656 277.671875 635.886719 276.183594 L 629.589844 270.265625 L 638.519531 269.015625 C 640.597656 268.722656 642.402344 267.4375 643.359375 265.570312 L 647.574219 257.335938 L 651.789062 265.570312 C 652.746094 267.4375 654.550781 268.722656 656.625 269.011719 L 665.558594 270.261719 Z M 659.257812 276.183594 " clip-rule="nonzero"/></clipPath><linearGradient x1="16.000028" gradientTransform="matrix(0.804688, 0, 0, 0.804688, 306.384951, 82.275532)" y1="495.99996" x2="495.999946" gradientUnits="userSpaceOnUse" y2="16.000042" id="d3379acb9d"><stop stop-opacity="1" stop-color="rgb(36.898804%, 73.699951%, 89.7995%)" offset="0"/><stop stop-opacity="1" stop-color="rgb(36.898804%, 73.699951%, 89.7995%)" offset="0.125"/><stop stop-opacity="1" stop-color="rgb(36.898804%, 73.699951%, 89.7995%)" offset="0.140625"/><stop stop-opacity="1" stop-color="rgb(36.994934%, 73.625183%, 89.7995%)" offset="0.148438"/><stop stop-opacity="1" stop-color="rgb(37.466431%, 73.262024%, 89.805603%)" offset="0.152344"/><stop stop-opacity="1" stop-color="rgb(37.841797%, 72.972107%, 89.810181%)" offset="0.15625"/><stop stop-opacity="1" stop-color="rgb(38.217163%, 72.68219%, 89.814758%)" offset="0.160156"/><stop stop-opacity="1" stop-color="rgb(38.594055%, 72.392273%, 89.819336%)" offset="0.164063"/><stop stop-opacity="1" stop-color="rgb(38.969421%, 72.102356%, 89.822388%)" offset="0.167969"/><stop stop-opacity="1" stop-color="rgb(39.346313%, 71.812439%, 89.826965%)" offset="0.171875"/><stop stop-opacity="1" stop-color="rgb(39.72168%, 71.522522%, 89.831543%)" offset="0.175781"/><stop stop-opacity="1" stop-color="rgb(40.098572%, 71.232605%, 89.836121%)" offset="0.179688"/><stop stop-opacity="1" stop-color="rgb(40.473938%, 70.942688%, 89.840698%)" offset="0.183594"/><stop stop-opacity="1" stop-color="rgb(40.849304%, 70.652771%, 89.845276%)" offset="0.1875"/><stop stop-opacity="1" stop-color="rgb(41.22467%, 70.362854%, 89.849854%)" offset="0.191406"/><stop stop-opacity="1" stop-color="rgb(41.601562%, 70.072937%, 89.854431%)" offset="0.195312"/><stop stop-opacity="1" stop-color="rgb(41.976929%, 69.78302%, 89.857483%)" offset="0.199219"/><stop stop-opacity="1" stop-color="rgb(42.353821%, 69.494629%, 89.862061%)" offset="0.203125"/><stop stop-opacity="1" stop-color="rgb(42.729187%, 69.204712%, 89.866638%)" offset="0.207031"/><stop stop-opacity="1" stop-color="rgb(43.106079%, 68.914795%, 89.871216%)" offset="0.210938"/><stop stop-opacity="1" stop-color="rgb(43.481445%, 68.624878%, 89.875793%)" offset="0.214844"/><stop stop-opacity="1" stop-color="rgb(43.856812%, 68.334961%, 89.880371%)" offset="0.21875"/><stop stop-opacity="1" stop-color="rgb(44.232178%, 68.045044%, 89.883423%)" offset="0.222656"/><stop stop-opacity="1" stop-color="rgb(44.60907%, 67.755127%, 89.888%)" offset="0.226563"/><stop stop-opacity="1" stop-color="rgb(44.984436%, 67.46521%, 89.892578%)" offset="0.230469"/><stop stop-opacity="1" stop-color="rgb(45.361328%, 67.175293%, 89.897156%)" offset="0.234375"/><stop stop-opacity="1" stop-color="rgb(45.736694%, 66.885376%, 89.901733%)" offset="0.238281"/><stop stop-opacity="1" stop-color="rgb(46.112061%, 66.595459%, 89.906311%)" offset="0.242188"/><stop stop-opacity="1" stop-color="rgb(46.487427%, 66.305542%, 89.910889%)" offset="0.246094"/><stop stop-opacity="1" stop-color="rgb(46.864319%, 66.015625%, 89.915466%)" offset="0.25"/><stop stop-opacity="1" stop-color="rgb(47.239685%, 65.725708%, 89.918518%)" offset="0.253906"/><stop stop-opacity="1" stop-color="rgb(47.616577%, 65.435791%, 89.923096%)" offset="0.257813"/><stop stop-opacity="1" stop-color="rgb(47.991943%, 65.145874%, 89.927673%)" offset="0.261719"/><stop stop-opacity="1" stop-color="rgb(48.368835%, 64.855957%, 89.932251%)" offset="0.265625"/><stop stop-opacity="1" stop-color="rgb(48.744202%, 64.56604%, 89.936829%)" offset="0.269531"/><stop stop-opacity="1" stop-color="rgb(49.119568%, 64.277649%, 89.941406%)" offset="0.273438"/><stop stop-opacity="1" stop-color="rgb(49.494934%, 63.987732%, 89.944458%)" offset="0.277344"/><stop stop-opacity="1" stop-color="rgb(49.871826%, 63.697815%, 89.949036%)" offset="0.28125"/><stop stop-opacity="1" stop-color="rgb(50.247192%, 63.407898%, 89.953613%)" offset="0.285156"/><stop stop-opacity="1" stop-color="rgb(50.624084%, 63.117981%, 89.958191%)" offset="0.289062"/><stop stop-opacity="1" stop-color="rgb(50.999451%, 62.828064%, 89.962769%)" offset="0.292969"/><stop stop-opacity="1" stop-color="rgb(51.374817%, 62.538147%, 89.967346%)" offset="0.296875"/><stop stop-opacity="1" stop-color="rgb(51.750183%, 62.24823%, 89.971924%)" offset="0.300781"/><stop stop-opacity="1" stop-color="rgb(52.127075%, 61.958313%, 89.976501%)" offset="0.304688"/><stop stop-opacity="1" stop-color="rgb(52.502441%, 61.668396%, 89.979553%)" offset="0.308594"/><stop stop-opacity="1" stop-color="rgb(52.879333%, 61.378479%, 89.984131%)" offset="0.3125"/><stop stop-opacity="1" stop-color="rgb(53.2547%, 61.088562%, 89.988708%)" offset="0.316406"/><stop stop-opacity="1" stop-color="rgb(53.631592%, 60.798645%, 89.993286%)" offset="0.320313"/><stop stop-opacity="1" stop-color="rgb(54.006958%, 60.508728%, 89.997864%)" offset="0.324219"/><stop stop-opacity="1" stop-color="rgb(54.382324%, 60.218811%, 90.002441%)" offset="0.328125"/><stop stop-opacity="1" stop-color="rgb(54.75769%, 59.928894%, 90.005493%)" offset="0.332031"/><stop stop-opacity="1" stop-color="rgb(55.134583%, 59.638977%, 90.010071%)" offset="0.335938"/><stop stop-opacity="1" stop-color="rgb(55.509949%, 59.34906%, 90.014648%)" offset="0.339844"/><stop stop-opacity="1" stop-color="rgb(55.886841%, 59.059143%, 90.019226%)" offset="0.34375"/><stop stop-opacity="1" stop-color="rgb(56.262207%, 58.769226%, 90.023804%)" offset="0.347656"/><stop stop-opacity="1" stop-color="rgb(56.637573%, 58.480835%, 90.028381%)" offset="0.351563"/><stop stop-opacity="1" stop-color="rgb(57.012939%, 58.190918%, 90.032959%)" offset="0.355469"/><stop stop-opacity="1" stop-color="rgb(57.389832%, 57.901001%, 90.037537%)" offset="0.359375"/><stop stop-opacity="1" stop-color="rgb(57.765198%, 57.611084%, 90.040588%)" offset="0.363281"/><stop stop-opacity="1" stop-color="rgb(58.14209%, 57.321167%, 90.045166%)" offset="0.367188"/><stop stop-opacity="1" stop-color="rgb(58.517456%, 57.03125%, 90.049744%)" offset="0.371094"/><stop stop-opacity="1" stop-color="rgb(58.894348%, 56.741333%, 90.054321%)" offset="0.375"/><stop stop-opacity="1" stop-color="rgb(59.269714%, 56.451416%, 90.058899%)" offset="0.378906"/><stop stop-opacity="1" stop-color="rgb(59.645081%, 56.161499%, 90.063477%)" offset="0.382813"/><stop stop-opacity="1" stop-color="rgb(60.020447%, 55.871582%, 90.066528%)" offset="0.386719"/><stop stop-opacity="1" stop-color="rgb(60.397339%, 55.581665%, 90.071106%)" offset="0.390625"/><stop stop-opacity="1" stop-color="rgb(60.772705%, 55.291748%, 90.075684%)" offset="0.394531"/><stop stop-opacity="1" stop-color="rgb(61.149597%, 55.001831%, 90.080261%)" offset="0.398438"/><stop stop-opacity="1" stop-color="rgb(61.524963%, 54.711914%, 90.084839%)" offset="0.402344"/><stop stop-opacity="1" stop-color="rgb(61.90033%, 54.421997%, 90.089417%)" offset="0.40625"/><stop stop-opacity="1" stop-color="rgb(62.275696%, 54.13208%, 90.093994%)" offset="0.410156"/><stop stop-opacity="1" stop-color="rgb(62.652588%, 53.842163%, 90.098572%)" offset="0.414062"/><stop stop-opacity="1" stop-color="rgb(63.027954%, 53.552246%, 90.101624%)" offset="0.417969"/><stop stop-opacity="1" stop-color="rgb(63.404846%, 53.263855%, 90.106201%)" offset="0.421875"/><stop stop-opacity="1" stop-color="rgb(63.780212%, 52.973938%, 90.110779%)" offset="0.425781"/><stop stop-opacity="1" stop-color="rgb(64.157104%, 52.684021%, 90.115356%)" offset="0.429688"/><stop stop-opacity="1" stop-color="rgb(64.532471%, 52.394104%, 90.119934%)" offset="0.433594"/><stop stop-opacity="1" stop-color="rgb(64.907837%, 52.104187%, 90.124512%)" offset="0.4375"/><stop stop-opacity="1" stop-color="rgb(65.283203%, 51.81427%, 90.127563%)" offset="0.441406"/><stop stop-opacity="1" stop-color="rgb(65.660095%, 51.524353%, 90.132141%)" offset="0.445312"/><stop stop-opacity="1" stop-color="rgb(66.035461%, 51.234436%, 90.136719%)" offset="0.449219"/><stop stop-opacity="1" stop-color="rgb(66.412354%, 50.944519%, 90.141296%)" offset="0.453125"/><stop stop-opacity="1" stop-color="rgb(66.78772%, 50.654602%, 90.145874%)" offset="0.457031"/><stop stop-opacity="1" stop-color="rgb(67.163086%, 50.364685%, 90.150452%)" offset="0.460938"/><stop stop-opacity="1" stop-color="rgb(67.538452%, 50.074768%, 90.155029%)" offset="0.464844"/><stop stop-opacity="1" stop-color="rgb(67.915344%, 49.784851%, 90.159607%)" offset="0.46875"/><stop stop-opacity="1" stop-color="rgb(68.29071%, 49.494934%, 90.162659%)" offset="0.472656"/><stop stop-opacity="1" stop-color="rgb(68.667603%, 49.205017%, 90.167236%)" offset="0.476563"/><stop stop-opacity="1" stop-color="rgb(69.042969%, 48.9151%, 90.171814%)" offset="0.480469"/><stop stop-opacity="1" stop-color="rgb(69.419861%, 48.625183%, 90.176392%)" offset="0.484375"/><stop stop-opacity="1" stop-color="rgb(69.795227%, 48.335266%, 90.180969%)" offset="0.488281"/><stop stop-opacity="1" stop-color="rgb(70.170593%, 48.046875%, 90.185547%)" offset="0.492188"/><stop stop-opacity="1" stop-color="rgb(70.545959%, 47.756958%, 90.188599%)" offset="0.496094"/><stop stop-opacity="1" stop-color="rgb(70.922852%, 47.467041%, 90.193176%)" offset="0.5"/><stop stop-opacity="1" stop-color="rgb(71.231079%, 47.236633%, 89.981079%)" offset="0.503906"/><stop stop-opacity="1" stop-color="rgb(71.540833%, 47.006226%, 89.770508%)" offset="0.507812"/><stop stop-opacity="1" stop-color="rgb(71.733093%, 46.878052%, 89.18457%)" offset="0.511719"/><stop stop-opacity="1" stop-color="rgb(71.925354%, 46.749878%, 88.600159%)" offset="0.515625"/><stop stop-opacity="1" stop-color="rgb(72.117615%, 46.621704%, 88.015747%)" offset="0.519531"/><stop stop-opacity="1" stop-color="rgb(72.311401%, 46.495056%, 87.431335%)" offset="0.523438"/><stop stop-opacity="1" stop-color="rgb(72.503662%, 46.366882%, 86.845398%)" offset="0.527344"/><stop stop-opacity="1" stop-color="rgb(72.697449%, 46.238708%, 86.260986%)" offset="0.53125"/><stop stop-opacity="1" stop-color="rgb(72.889709%, 46.110535%, 85.675049%)" offset="0.535156"/><stop stop-opacity="1" stop-color="rgb(73.08197%, 45.983887%, 85.090637%)" offset="0.539062"/><stop stop-opacity="1" stop-color="rgb(73.274231%, 45.855713%, 84.506226%)" offset="0.542969"/><stop stop-opacity="1" stop-color="rgb(73.468018%, 45.727539%, 83.921814%)" offset="0.546875"/><stop stop-opacity="1" stop-color="rgb(73.660278%, 45.599365%, 83.335876%)" offset="0.550781"/><stop stop-opacity="1" stop-color="rgb(73.852539%, 45.472717%, 82.751465%)" offset="0.554688"/><stop stop-opacity="1" stop-color="rgb(74.0448%, 45.344543%, 82.165527%)" offset="0.558594"/><stop stop-opacity="1" stop-color="rgb(74.238586%, 45.217896%, 81.581116%)" offset="0.5625"/><stop stop-opacity="1" stop-color="rgb(74.430847%, 45.089722%, 80.996704%)" offset="0.566406"/><stop stop-opacity="1" stop-color="rgb(74.624634%, 44.961548%, 80.412292%)" offset="0.570312"/><stop stop-opacity="1" stop-color="rgb(74.816895%, 44.833374%, 79.826355%)" offset="0.574219"/><stop stop-opacity="1" stop-color="rgb(75.009155%, 44.706726%, 79.241943%)" offset="0.578125"/><stop stop-opacity="1" stop-color="rgb(75.201416%, 44.578552%, 78.656006%)" offset="0.582031"/><stop stop-opacity="1" stop-color="rgb(75.395203%, 44.450378%, 78.071594%)" offset="0.585938"/><stop stop-opacity="1" stop-color="rgb(75.587463%, 44.322205%, 77.487183%)" offset="0.589844"/><stop stop-opacity="1" stop-color="rgb(75.78125%, 44.195557%, 76.902771%)" offset="0.59375"/><stop stop-opacity="1" stop-color="rgb(75.973511%, 44.067383%, 76.316833%)" offset="0.597656"/><stop stop-opacity="1" stop-color="rgb(76.165771%, 43.939209%, 75.732422%)" offset="0.601562"/><stop stop-opacity="1" stop-color="rgb(76.358032%, 43.811035%, 75.146484%)" offset="0.605469"/><stop stop-opacity="1" stop-color="rgb(76.551819%, 43.684387%, 74.562073%)" offset="0.609375"/><stop stop-opacity="1" stop-color="rgb(76.74408%, 43.556213%, 73.977661%)" offset="0.613281"/><stop stop-opacity="1" stop-color="rgb(76.93634%, 43.429565%, 73.39325%)" offset="0.617188"/><stop stop-opacity="1" stop-color="rgb(77.128601%, 43.301392%, 72.807312%)" offset="0.621094"/><stop stop-opacity="1" stop-color="rgb(77.322388%, 43.173218%, 72.2229%)" offset="0.625"/><stop stop-opacity="1" stop-color="rgb(77.514648%, 43.045044%, 71.636963%)" offset="0.628906"/><stop stop-opacity="1" stop-color="rgb(77.708435%, 42.918396%, 71.052551%)" offset="0.632812"/><stop stop-opacity="1" stop-color="rgb(77.900696%, 42.790222%, 70.46814%)" offset="0.636719"/><stop stop-opacity="1" stop-color="rgb(78.092957%, 42.662048%, 69.883728%)" offset="0.640625"/><stop stop-opacity="1" stop-color="rgb(78.285217%, 42.533875%, 69.297791%)" offset="0.644531"/><stop stop-opacity="1" stop-color="rgb(78.479004%, 42.407227%, 68.713379%)" offset="0.648438"/><stop stop-opacity="1" stop-color="rgb(78.671265%, 42.279053%, 68.127441%)" offset="0.652344"/><stop stop-opacity="1" stop-color="rgb(78.865051%, 42.150879%, 67.54303%)" offset="0.65625"/><stop stop-opacity="1" stop-color="rgb(79.057312%, 42.022705%, 66.958618%)" offset="0.660156"/><stop stop-opacity="1" stop-color="rgb(79.249573%, 41.896057%, 66.374207%)" offset="0.664062"/><stop stop-opacity="1" stop-color="rgb(79.441833%, 41.767883%, 65.788269%)" offset="0.667969"/><stop stop-opacity="1" stop-color="rgb(79.63562%, 41.639709%, 65.203857%)" offset="0.671875"/><stop stop-opacity="1" stop-color="rgb(79.827881%, 41.511536%, 64.61792%)" offset="0.675781"/><stop stop-opacity="1" stop-color="rgb(80.020142%, 41.384888%, 64.033508%)" offset="0.679688"/><stop stop-opacity="1" stop-color="rgb(80.212402%, 41.256714%, 63.449097%)" offset="0.683594"/><stop stop-opacity="1" stop-color="rgb(80.406189%, 41.130066%, 62.864685%)" offset="0.6875"/><stop stop-opacity="1" stop-color="rgb(80.59845%, 41.001892%, 62.278748%)" offset="0.691406"/><stop stop-opacity="1" stop-color="rgb(80.792236%, 40.873718%, 61.694336%)" offset="0.695312"/><stop stop-opacity="1" stop-color="rgb(80.984497%, 40.745544%, 61.108398%)" offset="0.699219"/><stop stop-opacity="1" stop-color="rgb(81.176758%, 40.618896%, 60.523987%)" offset="0.703125"/><stop stop-opacity="1" stop-color="rgb(81.369019%, 40.490723%, 59.939575%)" offset="0.707031"/><stop stop-opacity="1" stop-color="rgb(81.562805%, 40.362549%, 59.355164%)" offset="0.710938"/><stop stop-opacity="1" stop-color="rgb(81.755066%, 40.234375%, 58.769226%)" offset="0.714844"/><stop stop-opacity="1" stop-color="rgb(81.948853%, 40.107727%, 58.184814%)" offset="0.71875"/><stop stop-opacity="1" stop-color="rgb(82.141113%, 39.979553%, 57.598877%)" offset="0.722656"/><stop stop-opacity="1" stop-color="rgb(82.333374%, 39.851379%, 57.014465%)" offset="0.726562"/><stop stop-opacity="1" stop-color="rgb(82.525635%, 39.723206%, 56.430054%)" offset="0.730469"/><stop stop-opacity="1" stop-color="rgb(82.719421%, 39.596558%, 55.845642%)" offset="0.734375"/><stop stop-opacity="1" stop-color="rgb(82.911682%, 39.468384%, 55.259705%)" offset="0.738281"/><stop stop-opacity="1" stop-color="rgb(83.103943%, 39.341736%, 54.675293%)" offset="0.742188"/><stop stop-opacity="1" stop-color="rgb(83.296204%, 39.213562%, 54.089355%)" offset="0.746094"/><stop stop-opacity="1" stop-color="rgb(83.48999%, 39.085388%, 53.504944%)" offset="0.75"/><stop stop-opacity="1" stop-color="rgb(83.682251%, 38.957214%, 52.920532%)" offset="0.753906"/><stop stop-opacity="1" stop-color="rgb(83.876038%, 38.830566%, 52.336121%)" offset="0.757812"/><stop stop-opacity="1" stop-color="rgb(84.068298%, 38.702393%, 51.750183%)" offset="0.761719"/><stop stop-opacity="1" stop-color="rgb(84.260559%, 38.574219%, 51.165771%)" offset="0.765625"/><stop stop-opacity="1" stop-color="rgb(84.45282%, 38.446045%, 50.579834%)" offset="0.769531"/><stop stop-opacity="1" stop-color="rgb(84.646606%, 38.319397%, 49.995422%)" offset="0.773438"/><stop stop-opacity="1" stop-color="rgb(84.838867%, 38.191223%, 49.409485%)" offset="0.777344"/><stop stop-opacity="1" stop-color="rgb(85.031128%, 38.063049%, 48.825073%)" offset="0.78125"/><stop stop-opacity="1" stop-color="rgb(85.223389%, 37.934875%, 48.240662%)" offset="0.785156"/><stop stop-opacity="1" stop-color="rgb(85.417175%, 37.808228%, 47.65625%)" offset="0.789063"/><stop stop-opacity="1" stop-color="rgb(85.609436%, 37.680054%, 47.070312%)" offset="0.792969"/><stop stop-opacity="1" stop-color="rgb(85.803223%, 37.553406%, 46.485901%)" offset="0.796875"/><stop stop-opacity="1" stop-color="rgb(85.995483%, 37.425232%, 45.899963%)" offset="0.800781"/><stop stop-opacity="1" stop-color="rgb(86.187744%, 37.297058%, 45.315552%)" offset="0.804688"/><stop stop-opacity="1" stop-color="rgb(86.380005%, 37.168884%, 44.73114%)" offset="0.808594"/><stop stop-opacity="1" stop-color="rgb(86.573792%, 37.042236%, 44.146729%)" offset="0.8125"/><stop stop-opacity="1" stop-color="rgb(86.766052%, 36.914062%, 43.560791%)" offset="0.816406"/><stop stop-opacity="1" stop-color="rgb(86.959839%, 36.785889%, 42.976379%)" offset="0.820313"/><stop stop-opacity="1" stop-color="rgb(87.1521%, 36.657715%, 42.390442%)" offset="0.824219"/><stop stop-opacity="1" stop-color="rgb(87.34436%, 36.531067%, 41.80603%)" offset="0.828125"/><stop stop-opacity="1" stop-color="rgb(87.536621%, 36.402893%, 41.221619%)" offset="0.832031"/><stop stop-opacity="1" stop-color="rgb(87.730408%, 36.274719%, 40.637207%)" offset="0.835938"/><stop stop-opacity="1" stop-color="rgb(87.922668%, 36.146545%, 40.05127%)" offset="0.839844"/><stop stop-opacity="1" stop-color="rgb(88.114929%, 36.019897%, 39.466858%)" offset="0.84375"/><stop stop-opacity="1" stop-color="rgb(88.30719%, 35.891724%, 38.88092%)" offset="0.847656"/><stop stop-opacity="1" stop-color="rgb(88.500977%, 35.76355%, 38.296509%)" offset="0.851563"/><stop stop-opacity="1" stop-color="rgb(88.549805%, 35.731506%, 38.146973%)" offset="0.859375"/><stop stop-opacity="1" stop-color="rgb(88.598633%, 35.699463%, 37.998962%)" offset="0.875"/><stop stop-opacity="1" stop-color="rgb(88.598633%, 35.699463%, 37.998962%)" offset="1"/></linearGradient><clipPath id="1c013d28fe"><path d="M 331.261719 95.152344 L 717.511719 95.152344 L 717.511719 481.402344 L 331.261719 481.402344 Z M 331.261719 95.152344 " clip-rule="nonzero"/></clipPath><clipPath id="feabcdd564"><path d="M 660.945312 151.714844 C 624.46875 115.238281 575.96875 95.152344 524.386719 95.152344 C 472.800781 95.152344 424.300781 115.238281 387.824219 151.714844 C 351.347656 188.191406 331.261719 236.691406 331.261719 288.277344 C 331.261719 339.859375 351.347656 388.359375 387.824219 424.835938 C 424.300781 461.3125 472.800781 481.402344 524.386719 481.402344 C 575.96875 481.402344 624.46875 461.3125 660.945312 424.835938 C 697.421875 388.359375 717.511719 339.859375 717.511719 288.277344 C 717.511719 236.691406 697.421875 188.191406 660.945312 151.714844 Z M 408.511719 417.027344 L 398.253906 417.027344 C 397.8125 416.59375 397.367188 416.167969 396.929688 415.730469 C 377.035156 395.835938 362.375 372.105469 353.613281 346.214844 L 408.511719 346.214844 Z M 651.839844 415.730469 C 617.796875 449.777344 572.53125 468.527344 524.386719 468.527344 C 487.070312 468.527344 451.488281 457.253906 421.515625 436.339844 L 453.574219 436.339844 C 457.128906 436.339844 460.011719 433.457031 460.011719 429.902344 L 460.199219 429.902344 C 467.792969 429.902344 475.21875 431.332031 482.273438 434.152344 L 491.429688 437.8125 C 499.660156 441.105469 508.328125 442.777344 517.191406 442.777344 L 569.449219 442.777344 C 580.097656 442.777344 588.761719 434.113281 588.761719 423.464844 C 588.761719 420.023438 587.855469 416.789062 586.273438 413.988281 C 591.636719 410.554688 595.199219 404.542969 595.199219 397.714844 C 595.199219 392.769531 593.332031 388.257812 590.269531 384.839844 C 593.332031 381.417969 595.199219 376.90625 595.199219 371.964844 C 595.199219 367.019531 593.332031 362.507812 590.269531 359.089844 C 593.332031 355.667969 595.199219 351.15625 595.199219 346.214844 C 595.199219 335.566406 586.535156 326.902344 575.886719 326.902344 L 546.378906 326.902344 C 546.101562 326.902344 545.871094 326.789062 545.695312 326.570312 C 545.519531 326.351562 545.460938 326.105469 545.523438 325.832031 L 551.066406 300.882812 C 552.816406 293.003906 550.898438 284.898438 545.804688 278.636719 C 540.714844 272.378906 533.164062 268.84375 525.085938 268.964844 C 518.007812 269.0625 511.730469 273.695312 509.464844 280.492188 L 500.921875 306.121094 C 496.445312 319.546875 485.691406 329.671875 472.066406 333.339844 L 460.011719 333.339844 C 460.011719 329.78125 457.128906 326.902344 453.574219 326.902344 L 414.949219 326.902344 C 411.390625 326.902344 408.511719 329.78125 408.511719 333.339844 L 349.792969 333.339844 C 346.066406 318.792969 344.136719 303.683594 344.136719 288.277344 C 344.136719 240.128906 362.882812 194.863281 396.929688 160.820312 C 430.972656 126.773438 476.238281 108.027344 524.386719 108.027344 C 572.53125 108.027344 617.796875 126.773438 651.839844 160.820312 C 685.886719 194.863281 704.636719 240.128906 704.636719 288.277344 C 704.636719 336.421875 685.886719 381.6875 651.839844 415.730469 Z M 421.386719 423.464844 L 421.386719 339.777344 L 447.136719 339.777344 L 447.136719 423.464844 Z M 460.011719 346.214844 L 472.886719 346.214844 C 473.410156 346.214844 473.9375 346.148438 474.445312 346.019531 C 492.714844 341.453125 507.179688 328.058594 513.136719 310.195312 L 521.679688 284.566406 C 522.214844 282.957031 523.65625 281.863281 525.265625 281.839844 C 525.328125 281.839844 525.390625 281.839844 525.457031 281.839844 C 529.496094 281.839844 533.265625 283.625 535.820312 286.761719 C 538.414062 289.949219 539.390625 294.078125 538.496094 298.089844 L 532.953125 323.039062 C 532.042969 327.128906 533.027344 331.355469 535.652344 334.625 C 538.273438 337.898438 542.183594 339.773438 546.378906 339.773438 L 575.886719 339.773438 C 579.433594 339.773438 582.324219 342.664062 582.324219 346.210938 C 582.324219 349.761719 579.433594 352.648438 575.886719 352.648438 C 572.328125 352.648438 569.449219 355.53125 569.449219 359.085938 C 569.449219 362.640625 572.328125 365.523438 575.886719 365.523438 C 579.433594 365.523438 582.324219 368.414062 582.324219 371.960938 C 582.324219 375.511719 579.433594 378.398438 575.886719 378.398438 C 572.328125 378.398438 569.449219 381.28125 569.449219 384.835938 C 569.449219 388.390625 572.328125 391.273438 575.886719 391.273438 C 579.433594 391.273438 582.324219 394.164062 582.324219 397.710938 C 582.324219 401.261719 579.433594 404.148438 575.886719 404.148438 L 569.449219 404.148438 C 565.890625 404.148438 563.011719 407.03125 563.011719 410.585938 C 563.011719 414.140625 565.890625 417.023438 569.449219 417.023438 C 572.996094 417.023438 575.886719 419.914062 575.886719 423.460938 C 575.886719 427.011719 572.996094 429.898438 569.449219 429.898438 L 517.191406 429.898438 C 509.972656 429.898438 502.914062 428.539062 496.210938 425.859375 L 487.054688 422.195312 C 478.476562 418.765625 469.4375 417.027344 460.199219 417.027344 L 460.011719 417.027344 Z M 557.085938 189.898438 L 580.292969 168.09375 C 582.097656 166.398438 582.769531 163.816406 582.019531 161.453125 C 581.269531 159.09375 579.230469 157.371094 576.777344 157.027344 L 544.503906 152.507812 L 530.113281 124.40625 C 529.011719 122.253906 526.800781 120.902344 524.386719 120.902344 C 521.96875 120.902344 519.757812 122.253906 518.65625 124.402344 L 504.265625 152.507812 L 471.992188 157.027344 C 469.539062 157.371094 467.5 159.089844 466.75 161.453125 C 466 163.816406 466.671875 166.398438 468.476562 168.09375 L 491.6875 189.898438 L 486.21875 220.628906 C 485.792969 223.027344 486.757812 225.46875 488.71875 226.921875 C 490.675781 228.378906 493.289062 228.601562 495.464844 227.496094 L 524.386719 212.84375 L 553.304688 227.496094 C 554.222656 227.964844 555.21875 228.191406 556.210938 228.191406 C 557.570312 228.191406 558.921875 227.761719 560.050781 226.921875 C 562.011719 225.46875 562.980469 223.03125 562.550781 220.628906 Z M 545.726562 182.902344 C 544.140625 184.390625 543.414062 186.582031 543.796875 188.722656 L 547.617188 210.179688 L 527.292969 199.882812 C 526.378906 199.421875 525.382812 199.1875 524.386719 199.1875 C 523.386719 199.1875 522.390625 199.421875 521.476562 199.882812 L 501.15625 210.179688 L 504.972656 188.722656 C 505.355469 186.582031 504.628906 184.390625 503.042969 182.902344 L 487.089844 167.914062 L 509.363281 164.792969 C 511.441406 164.5 513.246094 163.21875 514.203125 161.351562 L 524.386719 141.460938 L 534.570312 161.351562 C 535.523438 163.21875 537.328125 164.5 539.40625 164.792969 L 561.683594 167.914062 Z M 473.777344 200.367188 L 454.847656 197.71875 L 446.425781 181.269531 C 445.324219 179.117188 443.113281 177.765625 440.699219 177.765625 C 438.28125 177.765625 436.070312 179.117188 434.96875 181.269531 L 426.546875 197.71875 L 407.617188 200.367188 C 405.164062 200.710938 403.125 202.433594 402.375 204.792969 C 401.625 207.15625 402.296875 209.738281 404.101562 211.433594 L 417.65625 224.167969 L 414.464844 242.085938 C 414.039062 244.488281 415.007812 246.925781 416.964844 248.378906 C 418.921875 249.835938 421.535156 250.058594 423.714844 248.957031 L 440.699219 240.347656 L 457.679688 248.957031 C 458.601562 249.421875 459.597656 249.652344 460.589844 249.652344 C 461.949219 249.652344 463.296875 249.222656 464.429688 248.378906 C 466.386719 246.925781 467.355469 244.488281 466.925781 242.085938 L 463.738281 224.167969 L 477.292969 211.433594 C 479.097656 209.738281 479.769531 207.15625 479.019531 204.792969 C 478.269531 202.433594 476.230469 200.710938 473.777344 200.367188 Z M 452.382812 217.171875 C 450.796875 218.660156 450.070312 220.847656 450.453125 222.992188 L 451.992188 231.640625 L 443.605469 227.390625 C 442.691406 226.925781 441.695312 226.695312 440.699219 226.695312 C 439.699219 226.695312 438.703125 226.925781 437.789062 227.390625 L 429.402344 231.640625 L 430.941406 222.992188 C 431.324219 220.847656 430.597656 218.660156 429.011719 217.171875 L 422.714844 211.253906 L 431.644531 210.003906 C 433.722656 209.710938 435.527344 208.425781 436.484375 206.5625 L 440.699219 198.328125 L 444.914062 206.5625 C 445.871094 208.429688 447.675781 209.710938 449.75 210.003906 L 458.683594 211.253906 Z M 422.277344 259.378906 L 403.347656 256.726562 L 394.925781 240.28125 C 393.824219 238.128906 391.613281 236.777344 389.199219 236.777344 C 386.78125 236.777344 384.570312 238.128906 383.46875 240.277344 L 375.046875 256.726562 L 356.117188 259.375 C 353.664062 259.71875 351.625 261.441406 350.875 263.804688 C 350.125 266.164062 350.796875 268.746094 352.601562 270.445312 L 366.15625 283.175781 L 362.964844 301.09375 C 362.539062 303.496094 363.507812 305.933594 365.464844 307.390625 C 367.421875 308.847656 370.035156 309.066406 372.214844 307.964844 L 389.199219 299.359375 L 406.179688 307.964844 C 407.101562 308.433594 408.097656 308.660156 409.089844 308.660156 C 410.449219 308.660156 411.796875 308.230469 412.929688 307.390625 C 414.886719 305.9375 415.855469 303.5 415.425781 301.097656 L 412.238281 283.179688 L 425.792969 270.445312 C 427.597656 268.75 428.269531 266.164062 427.519531 263.804688 C 426.769531 261.441406 424.730469 259.722656 422.277344 259.378906 Z M 400.882812 276.183594 C 399.296875 277.671875 398.570312 279.859375 398.953125 282 L 400.492188 290.648438 L 392.105469 286.402344 C 391.191406 285.9375 390.195312 285.707031 389.199219 285.707031 C 388.199219 285.707031 387.203125 285.9375 386.289062 286.402344 L 377.902344 290.648438 L 379.441406 282 C 379.824219 279.859375 379.097656 277.671875 377.511719 276.183594 L 371.214844 270.265625 L 380.144531 269.015625 C 382.222656 268.722656 384.027344 267.4375 384.984375 265.570312 L 389.199219 257.335938 L 393.414062 265.570312 C 394.371094 267.4375 396.175781 268.722656 398.25 269.011719 L 407.183594 270.261719 Z M 627.964844 249.652344 C 629.324219 249.652344 630.671875 249.222656 631.804688 248.378906 C 633.765625 246.925781 634.730469 244.488281 634.304688 242.085938 L 631.113281 224.167969 L 644.667969 211.433594 C 646.472656 209.738281 647.144531 207.15625 646.394531 204.792969 C 645.644531 202.433594 643.605469 200.710938 641.152344 200.367188 L 622.222656 197.714844 L 613.800781 181.269531 C 612.699219 179.117188 610.488281 177.765625 608.070312 177.765625 C 605.65625 177.765625 603.441406 179.117188 602.339844 181.269531 L 593.917969 197.714844 L 574.992188 200.367188 C 572.539062 200.710938 570.5 202.433594 569.75 204.792969 C 569 207.15625 569.671875 209.738281 571.476562 211.433594 L 585.027344 224.167969 L 581.839844 242.085938 C 581.414062 244.488281 582.378906 246.925781 584.339844 248.378906 C 586.296875 249.835938 588.910156 250.058594 591.089844 248.957031 L 608.074219 240.347656 L 625.054688 248.957031 C 625.976562 249.421875 626.972656 249.652344 627.964844 249.652344 Z M 617.828125 222.992188 L 619.367188 231.640625 L 610.980469 227.390625 C 610.066406 226.929688 609.070312 226.695312 608.074219 226.695312 C 607.074219 226.695312 606.078125 226.929688 605.164062 227.390625 L 596.777344 231.640625 L 598.316406 222.992188 C 598.699219 220.851562 597.972656 218.660156 596.386719 217.171875 L 590.089844 211.253906 L 599.019531 210.003906 C 601.097656 209.710938 602.902344 208.429688 603.859375 206.5625 L 608.074219 198.328125 L 612.289062 206.5625 C 613.246094 208.429688 615.050781 209.710938 617.125 210.003906 L 626.058594 211.253906 L 619.757812 217.171875 C 618.171875 218.660156 617.445312 220.847656 617.828125 222.992188 Z M 697.894531 263.804688 C 697.144531 261.441406 695.105469 259.722656 692.652344 259.378906 L 673.722656 256.726562 L 665.300781 240.28125 C 664.199219 238.128906 661.988281 236.777344 659.574219 236.777344 C 657.15625 236.777344 654.945312 238.128906 653.84375 240.277344 L 645.421875 256.726562 L 626.492188 259.375 C 624.039062 259.71875 622 261.441406 621.25 263.804688 C 620.5 266.164062 621.171875 268.746094 622.976562 270.445312 L 636.53125 283.175781 L 633.339844 301.09375 C 632.914062 303.496094 633.882812 305.933594 635.839844 307.390625 C 637.796875 308.847656 640.410156 309.066406 642.589844 307.964844 L 659.574219 299.359375 L 676.554688 307.964844 C 677.476562 308.433594 678.472656 308.660156 679.464844 308.660156 C 680.824219 308.660156 682.171875 308.230469 683.304688 307.390625 C 685.261719 305.9375 686.230469 303.5 685.800781 301.097656 L 682.613281 283.179688 L 696.167969 270.445312 C 697.972656 268.75 698.644531 266.164062 697.894531 263.804688 Z M 671.257812 276.183594 C 669.671875 277.671875 668.945312 279.859375 669.328125 282 L 670.867188 290.648438 L 662.480469 286.402344 C 661.566406 285.9375 660.570312 285.707031 659.574219 285.707031 C 658.574219 285.707031 657.578125 285.9375 656.664062 286.402344 L 648.277344 290.648438 L 649.816406 282 C 650.199219 279.859375 649.472656 277.671875 647.886719 276.183594 L 641.589844 270.265625 L 650.519531 269.015625 C 652.597656 268.722656 654.402344 267.4375 655.359375 265.570312 L 659.574219 257.335938 L 663.789062 265.570312 C 664.746094 267.4375 666.550781 268.722656 668.625 269.011719 L 677.558594 270.261719 Z M 671.257812 276.183594 " clip-rule="nonzero"/></clipPath><linearGradient x1="16.000026" gradientTransform="matrix(0.804688, 0, 0, 0.804688, 318.384954, 82.275532)" y1="495.999962" x2="495.999944" gradientUnits="userSpaceOnUse" y2="16.000044" id="4760384428"><stop stop-opacity="1" stop-color="rgb(0%, 99.598694%, 79.199219%)" offset="0"/><stop stop-opacity="1" stop-color="rgb(0%, 99.598694%, 79.199219%)" offset="0.125"/><stop stop-opacity="1" stop-color="rgb(0%, 99.598694%, 79.199219%)" offset="0.140625"/><stop stop-opacity="1" stop-color="rgb(0.250244%, 99.459839%, 79.124451%)" offset="0.144531"/><stop stop-opacity="1" stop-color="rgb(0.502014%, 99.32251%, 79.051208%)" offset="0.148438"/><stop stop-opacity="1" stop-color="rgb(1.489258%, 98.779297%, 78.759766%)" offset="0.152344"/><stop stop-opacity="1" stop-color="rgb(2.476501%, 98.23761%, 78.469849%)" offset="0.15625"/><stop stop-opacity="1" stop-color="rgb(3.463745%, 97.694397%, 78.178406%)" offset="0.160156"/><stop stop-opacity="1" stop-color="rgb(4.450989%, 97.15271%, 77.886963%)" offset="0.164062"/><stop stop-opacity="1" stop-color="rgb(5.438232%, 96.609497%, 77.59552%)" offset="0.167969"/><stop stop-opacity="1" stop-color="rgb(6.425476%, 96.06781%, 77.305603%)" offset="0.171875"/><stop stop-opacity="1" stop-color="rgb(7.41272%, 95.524597%, 77.01416%)" offset="0.175781"/><stop stop-opacity="1" stop-color="rgb(8.399963%, 94.981384%, 76.724243%)" offset="0.179688"/><stop stop-opacity="1" stop-color="rgb(9.387207%, 94.438171%, 76.4328%)" offset="0.183594"/><stop stop-opacity="1" stop-color="rgb(10.374451%, 93.896484%, 76.141357%)" offset="0.1875"/><stop stop-opacity="1" stop-color="rgb(11.361694%, 93.353271%, 75.849915%)" offset="0.191406"/><stop stop-opacity="1" stop-color="rgb(12.348938%, 92.811584%, 75.559998%)" offset="0.195312"/><stop stop-opacity="1" stop-color="rgb(13.334656%, 92.268372%, 75.268555%)" offset="0.199219"/><stop stop-opacity="1" stop-color="rgb(14.321899%, 91.726685%, 74.978638%)" offset="0.203125"/><stop stop-opacity="1" stop-color="rgb(15.309143%, 91.183472%, 74.687195%)" offset="0.207031"/><stop stop-opacity="1" stop-color="rgb(16.296387%, 90.640259%, 74.395752%)" offset="0.210938"/><stop stop-opacity="1" stop-color="rgb(17.28363%, 90.097046%, 74.104309%)" offset="0.214844"/><stop stop-opacity="1" stop-color="rgb(18.270874%, 89.555359%, 73.814392%)" offset="0.21875"/><stop stop-opacity="1" stop-color="rgb(19.258118%, 89.012146%, 73.522949%)" offset="0.222656"/><stop stop-opacity="1" stop-color="rgb(20.245361%, 88.470459%, 73.233032%)" offset="0.226562"/><stop stop-opacity="1" stop-color="rgb(21.232605%, 87.927246%, 72.941589%)" offset="0.230469"/><stop stop-opacity="1" stop-color="rgb(22.219849%, 87.385559%, 72.650146%)" offset="0.234375"/><stop stop-opacity="1" stop-color="rgb(23.207092%, 86.842346%, 72.358704%)" offset="0.238281"/><stop stop-opacity="1" stop-color="rgb(24.194336%, 86.300659%, 72.068787%)" offset="0.242187"/><stop stop-opacity="1" stop-color="rgb(25.18158%, 85.757446%, 71.777344%)" offset="0.246094"/><stop stop-opacity="1" stop-color="rgb(26.168823%, 85.214233%, 71.487427%)" offset="0.25"/><stop stop-opacity="1" stop-color="rgb(27.156067%, 84.671021%, 71.195984%)" offset="0.253906"/><stop stop-opacity="1" stop-color="rgb(28.143311%, 84.129333%, 70.904541%)" offset="0.257812"/><stop stop-opacity="1" stop-color="rgb(29.130554%, 83.586121%, 70.613098%)" offset="0.261719"/><stop stop-opacity="1" stop-color="rgb(30.117798%, 83.044434%, 70.323181%)" offset="0.265625"/><stop stop-opacity="1" stop-color="rgb(31.105042%, 82.501221%, 70.031738%)" offset="0.269531"/><stop stop-opacity="1" stop-color="rgb(32.092285%, 81.959534%, 69.741821%)" offset="0.273438"/><stop stop-opacity="1" stop-color="rgb(33.079529%, 81.416321%, 69.450378%)" offset="0.277344"/><stop stop-opacity="1" stop-color="rgb(34.066772%, 80.873108%, 69.158936%)" offset="0.28125"/><stop stop-opacity="1" stop-color="rgb(35.054016%, 80.329895%, 68.867493%)" offset="0.285156"/><stop stop-opacity="1" stop-color="rgb(36.04126%, 79.788208%, 68.577576%)" offset="0.289062"/><stop stop-opacity="1" stop-color="rgb(37.026978%, 79.244995%, 68.286133%)" offset="0.292969"/><stop stop-opacity="1" stop-color="rgb(38.014221%, 78.703308%, 67.996216%)" offset="0.296875"/><stop stop-opacity="1" stop-color="rgb(39.001465%, 78.160095%, 67.704773%)" offset="0.300781"/><stop stop-opacity="1" stop-color="rgb(39.988708%, 77.618408%, 67.41333%)" offset="0.304688"/><stop stop-opacity="1" stop-color="rgb(40.975952%, 77.075195%, 67.121887%)" offset="0.308594"/><stop stop-opacity="1" stop-color="rgb(41.963196%, 76.531982%, 66.83197%)" offset="0.3125"/><stop stop-opacity="1" stop-color="rgb(42.950439%, 75.98877%, 66.540527%)" offset="0.316406"/><stop stop-opacity="1" stop-color="rgb(43.937683%, 75.447083%, 66.25061%)" offset="0.320312"/><stop stop-opacity="1" stop-color="rgb(44.924927%, 74.90387%, 65.959167%)" offset="0.324219"/><stop stop-opacity="1" stop-color="rgb(45.91217%, 74.362183%, 65.66925%)" offset="0.328125"/><stop stop-opacity="1" stop-color="rgb(46.899414%, 73.81897%, 65.377808%)" offset="0.332031"/><stop stop-opacity="1" stop-color="rgb(47.886658%, 73.277283%, 65.086365%)" offset="0.335937"/><stop stop-opacity="1" stop-color="rgb(48.873901%, 72.73407%, 64.794922%)" offset="0.339844"/><stop stop-opacity="1" stop-color="rgb(49.861145%, 72.192383%, 64.505005%)" offset="0.34375"/><stop stop-opacity="1" stop-color="rgb(50.848389%, 71.64917%, 64.213562%)" offset="0.347656"/><stop stop-opacity="1" stop-color="rgb(51.835632%, 71.105957%, 63.923645%)" offset="0.351562"/><stop stop-opacity="1" stop-color="rgb(52.822876%, 70.562744%, 63.632202%)" offset="0.355469"/><stop stop-opacity="1" stop-color="rgb(53.81012%, 70.021057%, 63.340759%)" offset="0.359375"/><stop stop-opacity="1" stop-color="rgb(54.797363%, 69.477844%, 63.049316%)" offset="0.363281"/><stop stop-opacity="1" stop-color="rgb(55.784607%, 68.936157%, 62.759399%)" offset="0.367188"/><stop stop-opacity="1" stop-color="rgb(56.771851%, 68.392944%, 62.467957%)" offset="0.371094"/><stop stop-opacity="1" stop-color="rgb(57.759094%, 67.851257%, 62.17804%)" offset="0.375"/><stop stop-opacity="1" stop-color="rgb(58.746338%, 67.308044%, 61.886597%)" offset="0.378906"/><stop stop-opacity="1" stop-color="rgb(59.733582%, 66.764832%, 61.595154%)" offset="0.382812"/><stop stop-opacity="1" stop-color="rgb(60.719299%, 66.221619%, 61.303711%)" offset="0.386719"/><stop stop-opacity="1" stop-color="rgb(61.706543%, 65.679932%, 61.013794%)" offset="0.390625"/><stop stop-opacity="1" stop-color="rgb(62.693787%, 65.136719%, 60.722351%)" offset="0.394531"/><stop stop-opacity="1" stop-color="rgb(63.68103%, 64.595032%, 60.432434%)" offset="0.398438"/><stop stop-opacity="1" stop-color="rgb(64.668274%, 64.051819%, 60.140991%)" offset="0.402344"/><stop stop-opacity="1" stop-color="rgb(65.655518%, 63.510132%, 59.849548%)" offset="0.40625"/><stop stop-opacity="1" stop-color="rgb(66.642761%, 62.966919%, 59.558105%)" offset="0.410156"/><stop stop-opacity="1" stop-color="rgb(67.630005%, 62.425232%, 59.268188%)" offset="0.414062"/><stop stop-opacity="1" stop-color="rgb(68.617249%, 61.882019%, 58.976746%)" offset="0.417969"/><stop stop-opacity="1" stop-color="rgb(69.604492%, 61.338806%, 58.686829%)" offset="0.421875"/><stop stop-opacity="1" stop-color="rgb(70.591736%, 60.795593%, 58.395386%)" offset="0.425781"/><stop stop-opacity="1" stop-color="rgb(71.578979%, 60.253906%, 58.103943%)" offset="0.429688"/><stop stop-opacity="1" stop-color="rgb(72.566223%, 59.710693%, 57.8125%)" offset="0.433594"/><stop stop-opacity="1" stop-color="rgb(73.553467%, 59.169006%, 57.522583%)" offset="0.4375"/><stop stop-opacity="1" stop-color="rgb(74.54071%, 58.625793%, 57.23114%)" offset="0.441406"/><stop stop-opacity="1" stop-color="rgb(75.527954%, 58.084106%, 56.941223%)" offset="0.445312"/><stop stop-opacity="1" stop-color="rgb(76.515198%, 57.540894%, 56.64978%)" offset="0.449219"/><stop stop-opacity="1" stop-color="rgb(77.502441%, 56.997681%, 56.358337%)" offset="0.453125"/><stop stop-opacity="1" stop-color="rgb(78.489685%, 56.454468%, 56.066895%)" offset="0.457031"/><stop stop-opacity="1" stop-color="rgb(79.476929%, 55.912781%, 55.776978%)" offset="0.460938"/><stop stop-opacity="1" stop-color="rgb(80.464172%, 55.369568%, 55.485535%)" offset="0.464844"/><stop stop-opacity="1" stop-color="rgb(81.451416%, 54.827881%, 55.195618%)" offset="0.46875"/><stop stop-opacity="1" stop-color="rgb(82.43866%, 54.284668%, 54.904175%)" offset="0.472656"/><stop stop-opacity="1" stop-color="rgb(83.425903%, 53.742981%, 54.612732%)" offset="0.476562"/><stop stop-opacity="1" stop-color="rgb(84.411621%, 53.199768%, 54.321289%)" offset="0.480469"/><stop stop-opacity="1" stop-color="rgb(85.398865%, 52.656555%, 54.031372%)" offset="0.484375"/><stop stop-opacity="1" stop-color="rgb(86.386108%, 52.113342%, 53.739929%)" offset="0.488281"/><stop stop-opacity="1" stop-color="rgb(87.373352%, 51.571655%, 53.450012%)" offset="0.492187"/><stop stop-opacity="1" stop-color="rgb(88.360596%, 51.028442%, 53.158569%)" offset="0.496094"/><stop stop-opacity="1" stop-color="rgb(89.347839%, 50.486755%, 52.867126%)" offset="0.5"/><stop stop-opacity="1" stop-color="rgb(90.011597%, 50.300598%, 52.622986%)" offset="0.503906"/><stop stop-opacity="1" stop-color="rgb(90.67688%, 50.114441%, 52.380371%)" offset="0.507812"/><stop stop-opacity="1" stop-color="rgb(90.782166%, 50.544739%, 52.217102%)" offset="0.511719"/><stop stop-opacity="1" stop-color="rgb(90.887451%, 50.975037%, 52.055359%)" offset="0.515625"/><stop stop-opacity="1" stop-color="rgb(90.992737%, 51.405334%, 51.89209%)" offset="0.519531"/><stop stop-opacity="1" stop-color="rgb(91.098022%, 51.835632%, 51.730347%)" offset="0.523437"/><stop stop-opacity="1" stop-color="rgb(91.203308%, 52.26593%, 51.567078%)" offset="0.527344"/><stop stop-opacity="1" stop-color="rgb(91.308594%, 52.696228%, 51.405334%)" offset="0.53125"/><stop stop-opacity="1" stop-color="rgb(91.413879%, 53.126526%, 51.242065%)" offset="0.535156"/><stop stop-opacity="1" stop-color="rgb(91.519165%, 53.556824%, 51.080322%)" offset="0.539062"/><stop stop-opacity="1" stop-color="rgb(91.624451%, 53.987122%, 50.917053%)" offset="0.542969"/><stop stop-opacity="1" stop-color="rgb(91.729736%, 54.417419%, 50.75531%)" offset="0.546875"/><stop stop-opacity="1" stop-color="rgb(91.835022%, 54.847717%, 50.592041%)" offset="0.550781"/><stop stop-opacity="1" stop-color="rgb(91.940308%, 55.278015%, 50.430298%)" offset="0.554687"/><stop stop-opacity="1" stop-color="rgb(92.045593%, 55.708313%, 50.267029%)" offset="0.558594"/><stop stop-opacity="1" stop-color="rgb(92.150879%, 56.138611%, 50.105286%)" offset="0.5625"/><stop stop-opacity="1" stop-color="rgb(92.256165%, 56.568909%, 49.942017%)" offset="0.566406"/><stop stop-opacity="1" stop-color="rgb(92.36145%, 56.999207%, 49.780273%)" offset="0.570312"/><stop stop-opacity="1" stop-color="rgb(92.466736%, 57.429504%, 49.617004%)" offset="0.574219"/><stop stop-opacity="1" stop-color="rgb(92.572021%, 57.859802%, 49.455261%)" offset="0.578125"/><stop stop-opacity="1" stop-color="rgb(92.677307%, 58.2901%, 49.291992%)" offset="0.582031"/><stop stop-opacity="1" stop-color="rgb(92.782593%, 58.720398%, 49.130249%)" offset="0.585938"/><stop stop-opacity="1" stop-color="rgb(92.887878%, 59.150696%, 48.96698%)" offset="0.589844"/><stop stop-opacity="1" stop-color="rgb(92.993164%, 59.580994%, 48.805237%)" offset="0.59375"/><stop stop-opacity="1" stop-color="rgb(93.09845%, 60.011292%, 48.641968%)" offset="0.597656"/><stop stop-opacity="1" stop-color="rgb(93.203735%, 60.441589%, 48.480225%)" offset="0.601562"/><stop stop-opacity="1" stop-color="rgb(93.309021%, 60.871887%, 48.316956%)" offset="0.605469"/><stop stop-opacity="1" stop-color="rgb(93.414307%, 61.302185%, 48.155212%)" offset="0.609375"/><stop stop-opacity="1" stop-color="rgb(93.519592%, 61.732483%, 47.991943%)" offset="0.613281"/><stop stop-opacity="1" stop-color="rgb(93.626404%, 62.162781%, 47.8302%)" offset="0.617188"/><stop stop-opacity="1" stop-color="rgb(93.731689%, 62.593079%, 47.666931%)" offset="0.621094"/><stop stop-opacity="1" stop-color="rgb(93.836975%, 63.023376%, 47.505188%)" offset="0.625"/><stop stop-opacity="1" stop-color="rgb(93.942261%, 63.453674%, 47.341919%)" offset="0.628906"/><stop stop-opacity="1" stop-color="rgb(94.047546%, 63.883972%, 47.180176%)" offset="0.632812"/><stop stop-opacity="1" stop-color="rgb(94.152832%, 64.31427%, 47.016907%)" offset="0.636719"/><stop stop-opacity="1" stop-color="rgb(94.258118%, 64.744568%, 46.855164%)" offset="0.640625"/><stop stop-opacity="1" stop-color="rgb(94.363403%, 65.174866%, 46.691895%)" offset="0.644531"/><stop stop-opacity="1" stop-color="rgb(94.468689%, 65.605164%, 46.530151%)" offset="0.648438"/><stop stop-opacity="1" stop-color="rgb(94.573975%, 66.035461%, 46.368408%)" offset="0.652344"/><stop stop-opacity="1" stop-color="rgb(94.67926%, 66.465759%, 46.206665%)" offset="0.65625"/><stop stop-opacity="1" stop-color="rgb(94.784546%, 66.896057%, 46.043396%)" offset="0.660156"/><stop stop-opacity="1" stop-color="rgb(94.889832%, 67.326355%, 45.881653%)" offset="0.664062"/><stop stop-opacity="1" stop-color="rgb(94.995117%, 67.756653%, 45.718384%)" offset="0.667969"/><stop stop-opacity="1" stop-color="rgb(95.100403%, 68.186951%, 45.556641%)" offset="0.671875"/><stop stop-opacity="1" stop-color="rgb(95.205688%, 68.617249%, 45.393372%)" offset="0.675781"/><stop stop-opacity="1" stop-color="rgb(95.310974%, 69.047546%, 45.231628%)" offset="0.679688"/><stop stop-opacity="1" stop-color="rgb(95.41626%, 69.477844%, 45.068359%)" offset="0.683594"/><stop stop-opacity="1" stop-color="rgb(95.521545%, 69.908142%, 44.906616%)" offset="0.6875"/><stop stop-opacity="1" stop-color="rgb(95.626831%, 70.33844%, 44.743347%)" offset="0.691406"/><stop stop-opacity="1" stop-color="rgb(95.732117%, 70.768738%, 44.581604%)" offset="0.695312"/><stop stop-opacity="1" stop-color="rgb(95.837402%, 71.199036%, 44.418335%)" offset="0.699219"/><stop stop-opacity="1" stop-color="rgb(95.942688%, 71.629333%, 44.256592%)" offset="0.703125"/><stop stop-opacity="1" stop-color="rgb(96.047974%, 72.059631%, 44.093323%)" offset="0.707031"/><stop stop-opacity="1" stop-color="rgb(96.153259%, 72.489929%, 43.93158%)" offset="0.710938"/><stop stop-opacity="1" stop-color="rgb(96.258545%, 72.920227%, 43.768311%)" offset="0.714844"/><stop stop-opacity="1" stop-color="rgb(96.363831%, 73.350525%, 43.606567%)" offset="0.71875"/><stop stop-opacity="1" stop-color="rgb(96.469116%, 73.780823%, 43.443298%)" offset="0.722656"/><stop stop-opacity="1" stop-color="rgb(96.574402%, 74.211121%, 43.281555%)" offset="0.726562"/><stop stop-opacity="1" stop-color="rgb(96.679688%, 74.641418%, 43.118286%)" offset="0.730469"/><stop stop-opacity="1" stop-color="rgb(96.784973%, 75.071716%, 42.956543%)" offset="0.734375"/><stop stop-opacity="1" stop-color="rgb(96.890259%, 75.502014%, 42.793274%)" offset="0.738281"/><stop stop-opacity="1" stop-color="rgb(96.99707%, 75.932312%, 42.631531%)" offset="0.742188"/><stop stop-opacity="1" stop-color="rgb(97.102356%, 76.36261%, 42.468262%)" offset="0.746094"/><stop stop-opacity="1" stop-color="rgb(97.207642%, 76.792908%, 42.306519%)" offset="0.75"/><stop stop-opacity="1" stop-color="rgb(97.312927%, 77.223206%, 42.14325%)" offset="0.753906"/><stop stop-opacity="1" stop-color="rgb(97.418213%, 77.653503%, 41.981506%)" offset="0.757812"/><stop stop-opacity="1" stop-color="rgb(97.523499%, 78.083801%, 41.818237%)" offset="0.761719"/><stop stop-opacity="1" stop-color="rgb(97.628784%, 78.514099%, 41.656494%)" offset="0.765625"/><stop stop-opacity="1" stop-color="rgb(97.73407%, 78.944397%, 41.493225%)" offset="0.769531"/><stop stop-opacity="1" stop-color="rgb(97.839355%, 79.374695%, 41.331482%)" offset="0.773437"/><stop stop-opacity="1" stop-color="rgb(97.944641%, 79.804993%, 41.168213%)" offset="0.777344"/><stop stop-opacity="1" stop-color="rgb(98.049927%, 80.235291%, 41.00647%)" offset="0.78125"/><stop stop-opacity="1" stop-color="rgb(98.155212%, 80.665588%, 40.843201%)" offset="0.785156"/><stop stop-opacity="1" stop-color="rgb(98.260498%, 81.095886%, 40.681458%)" offset="0.789062"/><stop stop-opacity="1" stop-color="rgb(98.365784%, 81.526184%, 40.518188%)" offset="0.792969"/><stop stop-opacity="1" stop-color="rgb(98.471069%, 81.956482%, 40.356445%)" offset="0.796875"/><stop stop-opacity="1" stop-color="rgb(98.576355%, 82.38678%, 40.193176%)" offset="0.800781"/><stop stop-opacity="1" stop-color="rgb(98.681641%, 82.817078%, 40.031433%)" offset="0.804688"/><stop stop-opacity="1" stop-color="rgb(98.786926%, 83.247375%, 39.868164%)" offset="0.808594"/><stop stop-opacity="1" stop-color="rgb(98.892212%, 83.677673%, 39.706421%)" offset="0.8125"/><stop stop-opacity="1" stop-color="rgb(98.997498%, 84.107971%, 39.543152%)" offset="0.816406"/><stop stop-opacity="1" stop-color="rgb(99.102783%, 84.538269%, 39.381409%)" offset="0.820312"/><stop stop-opacity="1" stop-color="rgb(99.208069%, 84.968567%, 39.21814%)" offset="0.824219"/><stop stop-opacity="1" stop-color="rgb(99.313354%, 85.398865%, 39.056396%)" offset="0.828125"/><stop stop-opacity="1" stop-color="rgb(99.41864%, 85.829163%, 38.893127%)" offset="0.832031"/><stop stop-opacity="1" stop-color="rgb(99.523926%, 86.25946%, 38.731384%)" offset="0.835938"/><stop stop-opacity="1" stop-color="rgb(99.629211%, 86.689758%, 38.568115%)" offset="0.839844"/><stop stop-opacity="1" stop-color="rgb(99.734497%, 87.120056%, 38.406372%)" offset="0.84375"/><stop stop-opacity="1" stop-color="rgb(99.839783%, 87.550354%, 38.243103%)" offset="0.847656"/><stop stop-opacity="1" stop-color="rgb(99.945068%, 87.980652%, 38.08136%)" offset="0.851562"/><stop stop-opacity="1" stop-color="rgb(99.972534%, 88.088989%, 38.040161%)" offset="0.859375"/><stop stop-opacity="1" stop-color="rgb(100%, 88.198853%, 37.998962%)" offset="0.875"/><stop stop-opacity="1" stop-color="rgb(100%, 88.198853%, 37.998962%)" offset="1"/></linearGradient></defs><g clip-path="url(#7af1f4a87e)"><path fill="#ffffff" d="M 0 0.140625 L 1024.5 0.140625 L 1024.5 576.140625 L 0 576.140625 Z M 0 0.140625 " fill-opacity="1" fill-rule="nonzero"/><path fill="#ffffff" d="M 0 0.140625 L 1024.5 0.140625 L 1024.5 576.140625 L 0 576.140625 Z M 0 0.140625 " fill-opacity="1" fill-rule="nonzero"/></g><g clip-path="url(#19e083506c)"><g clip-path="url(#f912d09a96)"><path fill="url(#d3379acb9d)" d="M 319.261719 95.152344 L 319.261719 481.402344 L 705.511719 481.402344 L 705.511719 95.152344 Z M 319.261719 95.152344 " fill-rule="nonzero"/></g></g><g clip-path="url(#1c013d28fe)"><g clip-path="url(#feabcdd564)"><path fill="url(#4760384428)" d="M 331.261719 95.152344 L 331.261719 481.402344 L 717.511719 481.402344 L 717.511719 95.152344 Z M 331.261719 95.152344 " fill-rule="nonzero"/></g></g></svg>