<svg xmlns="http://www.w3.org/2000/svg" xmlns:xlink="http://www.w3.org/1999/xlink" zoomAndPan="magnify"
  preserveAspectRatio="xMidYMid meet" version="1.0" viewBox="367.09 125.97 290.27 324.73">
  <defs>
    <clipPath id="026563aa07">
      <path
        d="M 367.085938 198.15625 L 512.261719 198.15625 L 512.261719 450.695312 L 367.085938 450.695312 Z M 367.085938 198.15625 "
        clip-rule="nonzero" />
    </clipPath>
    <clipPath id="f5cd62dd80">
      <path d="M 512 198.15625 L 657.335938 198.15625 L 657.335938 450.695312 L 512 450.695312 Z M 512 198.15625 "
        clip-rule="nonzero" />
    </clipPath>
    <clipPath id="f25f1ae28b">
      <path
        d="M 367.085938 125.96875 L 657.335938 125.96875 L 657.335938 271.34375 L 367.085938 271.34375 Z M 367.085938 125.96875 "
        clip-rule="nonzero" />
    </clipPath>
  </defs>
  <g clip-path="url(#026563aa07)">
    <path fill="#000000"
      d="M 512.222656 450.703125 L 367.085938 378.015625 L 367.085938 198.652344 L 512.222656 271.335938 L 512.222656 450.703125 "
      fill-opacity="1" fill-rule="nonzero" />
  </g>
  <g clip-path="url(#f5cd62dd80)">
    <path fill="#333333"
      d="M 657.359375 378.015625 L 512.222656 450.703125 L 512.222656 271.335938 L 657.359375 198.652344 L 657.359375 378.015625 "
      fill-opacity="1" fill-rule="nonzero" />
  </g>
  <g clip-path="url(#f25f1ae28b)">
    <path fill="#666666"
      d="M 657.359375 198.652344 L 512.222656 271.335938 L 367.085938 198.652344 L 512.222656 125.96875 L 657.359375 198.652344 "
      fill-opacity="1" fill-rule="nonzero" />
  </g>
  <path fill="#ffffff"
    d="M 419.777344 369.59375 C 419.777344 365.828125 421.058594 363.363281 423.617188 362.199219 C 426.179688 361.039062 429.460938 361.464844 433.460938 363.464844 C 437.453125 365.464844 440.738281 368.332031 443.296875 372.054688 C 445.859375 375.785156 447.140625 379.535156 447.140625 383.296875 C 447.140625 387.011719 445.886719 389.441406 443.382812 390.605469 C 440.875 391.765625 437.566406 391.316406 433.460938 389.261719 C 429.347656 387.199219 426.039062 384.335938 423.535156 380.664062 C 421.03125 376.996094 419.777344 373.304688 419.777344 369.59375 Z M 422.226562 344.894531 C 422.226562 336.992188 423.183594 331.179688 425.097656 327.453125 C 427.011719 323.726562 430.519531 320.867188 435.617188 318.875 C 440.707031 316.882812 444.097656 314.882812 445.792969 312.878906 C 447.476562 310.871094 448.328125 308.289062 448.328125 305.121094 C 448.328125 295.578125 443.929688 288.601562 435.148438 284.207031 C 430.980469 282.117188 427.644531 281.734375 425.140625 283.050781 C 422.632812 284.367188 421.320312 287.257812 421.210938 291.722656 L 396.71875 279.457031 C 396.828125 268.730469 400.308594 262.035156 407.148438 259.367188 C 413.992188 256.695312 423.320312 258.320312 435.148438 264.246094 C 447.085938 270.21875 456.347656 277.753906 462.9375 286.835938 C 469.527344 295.921875 472.820312 305.746094 472.820312 316.300781 C 472.820312 321.097656 471.746094 325.089844 469.609375 328.28125 C 467.46875 331.46875 463.722656 334.320312 458.375 336.835938 L 451.535156 339.929688 C 447.253906 341.90625 444.804688 345.507812 444.183594 350.726562 L 443.851562 355.722656 L 422.226562 344.894531 "
    fill-opacity="1" fill-rule="nonzero" />
  <path fill="#ffffff"
    d="M 569.796875 384.25 C 569.796875 380.484375 571.078125 376.738281 573.640625 373.007812 C 576.203125 369.28125 579.484375 366.417969 583.484375 364.414062 C 587.476562 362.414062 590.757812 361.992188 593.320312 363.152344 C 595.882812 364.316406 597.164062 366.777344 597.164062 370.542969 C 597.164062 374.253906 595.910156 377.945312 593.40625 381.613281 C 590.898438 385.289062 587.585938 388.15625 583.484375 390.210938 C 579.367188 392.273438 576.0625 392.71875 573.554688 391.558594 C 571.050781 390.394531 569.796875 387.957031 569.796875 384.25 Z M 572.246094 357.097656 C 572.246094 349.195312 573.203125 342.421875 575.121094 336.78125 C 577.035156 331.136719 580.539062 324.765625 585.636719 317.667969 C 590.726562 310.574219 594.121094 305.179688 595.8125 301.476562 C 597.5 297.78125 598.347656 294.347656 598.347656 291.183594 C 598.347656 281.640625 593.953125 279.066406 585.167969 283.464844 C 581 285.550781 577.664062 288.507812 575.160156 292.335938 C 572.65625 296.164062 571.34375 300.363281 571.234375 304.941406 L 546.738281 317.210938 C 546.851562 306.371094 550.328125 296.191406 557.171875 286.667969 C 564.015625 277.148438 573.34375 269.425781 585.167969 263.503906 C 597.105469 257.523438 606.371094 255.777344 612.957031 258.265625 C 619.546875 260.75 622.839844 267.273438 622.839844 277.828125 C 622.839844 282.625 621.769531 287.691406 619.632812 293.023438 C 617.488281 298.359375 613.746094 304.960938 608.398438 312.828125 L 601.558594 322.777344 C 597.277344 329.039062 594.824219 335.09375 594.207031 340.9375 L 593.871094 346.269531 L 572.246094 357.097656 "
    fill-opacity="1" fill-rule="nonzero" />
  <path fill="#ffffff"
    d="M 549.140625 225.621094 C 545.539062 223.816406 543.796875 221.71875 543.910156 219.316406 C 544.027344 216.917969 546 214.757812 549.832031 212.839844 C 553.65625 210.925781 557.96875 209.9375 562.757812 209.878906 C 567.550781 209.820312 571.75 210.691406 575.351562 212.496094 C 578.898438 214.273438 580.625 216.34375 580.539062 218.699219 C 580.449219 221.0625 578.433594 223.226562 574.503906 225.195312 C 570.5625 227.171875 566.242188 228.179688 561.527344 228.222656 C 556.820312 228.265625 552.691406 227.398438 549.140625 225.621094 Z M 526.6875 212.03125 C 519.132812 208.246094 514.03125 204.769531 511.382812 201.609375 C 508.738281 198.449219 507.679688 194.554688 508.214844 189.933594 C 508.746094 185.316406 508.460938 181.917969 507.351562 179.738281 C 506.238281 177.5625 504.175781 175.714844 501.148438 174.199219 C 492.019531 169.628906 483.242188 169.449219 474.832031 173.664062 C 470.839844 175.664062 468.875 177.878906 468.9375 180.3125 C 468.992188 182.746094 471.132812 185.074219 475.351562 187.292969 L 451.890625 199.039062 C 441.6875 193.824219 436.949219 188.113281 437.671875 181.910156 C 438.394531 175.710938 444.414062 169.773438 455.742188 164.101562 C 467.175781 158.375 478.816406 155.316406 490.65625 154.929688 C 502.5 154.539062 513.46875 156.875 523.566406 161.929688 C 528.152344 164.226562 531.460938 166.910156 533.488281 169.976562 C 535.511719 173.046875 536.445312 177.109375 536.292969 182.15625 L 535.972656 188.5625 C 535.816406 192.589844 538.085938 196.078125 542.785156 199.023438 L 547.402344 201.660156 L 526.6875 212.03125 "
    fill-opacity="1" fill-rule="nonzero" />
</svg>